# xmcd
#
# Track frame offsets:
#	182
#	15727
#	33240
#	47840
#	65945
#	80602
#	96200
#	113177
#	125595
#	140752
#
# Disc length: 2055 seconds
#
# Revision: 3
# Processed by: cddbd v1.5.2PL0 Copyright (c) Steve Scherf et al.
# Submitted via: EZCDAudioConverter 6.0.7.1
#
DISCID=9008050a
DTITLE=Conway Twitty - Final Touches
DYEAR=1993
DGENRE=Country
TTITLE0=Two Timin' Two Stepper
TTITLE1=I Hurt For You
TTITLE2=Don't It Make You Lonely
TTITLE3=I'm The Only Thing (I'll Hold Against You)
TTITLE4=I Don't Love You
TTITLE5=The Likes Of Me
TTITLE6=An Old Memory Like Me
TTITLE7=Final Touches
TTITLE8=You Are To Me
TTITLE9=You Ought To Try It Sometime
EXTD=
EXTT0=
EXTT1=
EXTT2=
EXTT3=
EXTT4=
EXTT5=
EXTT6=
EXTT7=
EXTT8=
EXTT9=
PLAYORDER=
